<mxfile host="Electron" modified="2023-08-19T10:04:49.910Z" agent="Mozilla/5.0 (Macintosh; Intel Mac OS X 10_15_7) AppleWebKit/537.36 (KHTML, like Gecko) draw.io/21.6.8 Chrome/114.0.5735.289 Electron/25.5.0 Safari/537.36" etag="u8CBjpLPu3u-s1geWSMv" version="21.6.8" type="device">
  <diagram name="Page-1" id="4mFLurpTBYpLGZBFoFjS">
    <mxGraphModel dx="913" dy="638" grid="1" gridSize="10" guides="1" tooltips="1" connect="1" arrows="1" fold="1" page="1" pageScale="1" pageWidth="1169" pageHeight="827" math="0" shadow="0">
      <root>
        <mxCell id="0" />
        <mxCell id="1" parent="0" />
        <mxCell id="dfudUUUSqXMP-2oU-Ngx-14" value="" style="rounded=0;whiteSpace=wrap;html=1;fillColor=none;strokeWidth=2;" vertex="1" parent="1">
          <mxGeometry x="180" y="260" width="480" height="120" as="geometry" />
        </mxCell>
        <mxCell id="cye6MK2p7TntERCzml5D-14" style="edgeStyle=orthogonalEdgeStyle;rounded=0;orthogonalLoop=1;jettySize=auto;html=1;exitX=1;exitY=0.5;exitDx=0;exitDy=0;" parent="1" source="cye6MK2p7TntERCzml5D-4" edge="1">
          <mxGeometry relative="1" as="geometry">
            <mxPoint x="400" y="320" as="targetPoint" />
          </mxGeometry>
        </mxCell>
        <mxCell id="cye6MK2p7TntERCzml5D-4" value="download" style="rounded=0;whiteSpace=wrap;html=1;strokeWidth=2;fontFamily=Roboto;fillColor=none;" parent="1" vertex="1">
          <mxGeometry x="280" y="305" width="70" height="30" as="geometry" />
        </mxCell>
        <mxCell id="cye6MK2p7TntERCzml5D-17" style="edgeStyle=orthogonalEdgeStyle;rounded=0;orthogonalLoop=1;jettySize=auto;html=1;exitX=1;exitY=0.5;exitDx=0;exitDy=0;" parent="1" source="cye6MK2p7TntERCzml5D-12" edge="1">
          <mxGeometry relative="1" as="geometry">
            <mxPoint x="470" y="320" as="targetPoint" />
          </mxGeometry>
        </mxCell>
        <mxCell id="cye6MK2p7TntERCzml5D-12" value="" style="ellipse;whiteSpace=wrap;html=1;aspect=fixed;strokeWidth=2;container=0;fillColor=none;" parent="1" vertex="1">
          <mxGeometry x="400" y="310" width="20" height="20" as="geometry" />
        </mxCell>
        <mxCell id="cye6MK2p7TntERCzml5D-19" style="edgeStyle=orthogonalEdgeStyle;rounded=0;orthogonalLoop=1;jettySize=auto;html=1;exitX=1;exitY=0.5;exitDx=0;exitDy=0;" parent="1" source="cye6MK2p7TntERCzml5D-16" edge="1">
          <mxGeometry relative="1" as="geometry">
            <mxPoint x="590" y="320" as="targetPoint" />
          </mxGeometry>
        </mxCell>
        <mxCell id="cye6MK2p7TntERCzml5D-16" value="extract" style="rounded=0;whiteSpace=wrap;html=1;strokeWidth=2;fontFamily=Roboto;fillColor=none;" parent="1" vertex="1">
          <mxGeometry x="470" y="305" width="70" height="30" as="geometry" />
        </mxCell>
        <mxCell id="cye6MK2p7TntERCzml5D-18" value="" style="ellipse;whiteSpace=wrap;html=1;aspect=fixed;strokeWidth=2;container=0;fillColor=none;" parent="1" vertex="1">
          <mxGeometry x="590" y="310" width="20" height="20" as="geometry" />
        </mxCell>
        <mxCell id="cye6MK2p7TntERCzml5D-21" value="o" style="text;html=1;strokeColor=none;fillColor=none;align=center;verticalAlign=middle;whiteSpace=wrap;rounded=0;fontFamily=Roboto;" parent="1" vertex="1">
          <mxGeometry x="380" y="330" width="60" height="30" as="geometry" />
        </mxCell>
        <mxCell id="cye6MK2p7TntERCzml5D-24" value="https://.../steep-wms.github.io/..." style="text;html=1;strokeColor=none;fillColor=none;align=center;verticalAlign=middle;whiteSpace=wrap;rounded=0;fontFamily=Roboto;fontStyle=2" parent="1" vertex="1">
          <mxGeometry x="62" y="367" width="60" height="30" as="geometry" />
        </mxCell>
        <mxCell id="rHw1hflUSNLqHSK0uk7y-11" value="https://.../steep/..." style="text;html=1;strokeColor=none;fillColor=none;align=center;verticalAlign=middle;whiteSpace=wrap;rounded=0;fontFamily=Roboto;fontStyle=2" parent="1" vertex="1">
          <mxGeometry x="68" y="395" width="60" height="30" as="geometry" />
        </mxCell>
        <mxCell id="dfudUUUSqXMP-2oU-Ngx-1" value="output_directory" style="text;html=1;strokeColor=none;fillColor=none;align=center;verticalAlign=middle;whiteSpace=wrap;rounded=0;fontFamily=Roboto;" vertex="1" parent="1">
          <mxGeometry x="570" y="330" width="60" height="30" as="geometry" />
        </mxCell>
        <mxCell id="dfudUUUSqXMP-2oU-Ngx-9" style="edgeStyle=orthogonalEdgeStyle;rounded=0;orthogonalLoop=1;jettySize=auto;html=1;exitX=1;exitY=0.5;exitDx=0;exitDy=0;" edge="1" parent="1" source="cye6MK2p7TntERCzml5D-1">
          <mxGeometry relative="1" as="geometry">
            <mxPoint x="150" y="320" as="targetPoint" />
          </mxGeometry>
        </mxCell>
        <mxCell id="cye6MK2p7TntERCzml5D-1" value="" style="ellipse;whiteSpace=wrap;html=1;aspect=fixed;strokeWidth=2;container=0;fillColor=none;" parent="1" vertex="1">
          <mxGeometry x="80" y="310" width="20" height="20" as="geometry" />
        </mxCell>
        <mxCell id="dfudUUUSqXMP-2oU-Ngx-4" value="" style="group" vertex="1" connectable="0" parent="1">
          <mxGeometry x="83.965" y="317.46500000000003" width="12.069999999999993" height="5.069999999999993" as="geometry" />
        </mxCell>
        <mxCell id="cye6MK2p7TntERCzml5D-2" value="" style="ellipse;whiteSpace=wrap;html=1;aspect=fixed;fillColor=#000000;" parent="dfudUUUSqXMP-2oU-Ngx-4" vertex="1">
          <mxGeometry width="5.07" height="5.07" as="geometry" />
        </mxCell>
        <mxCell id="dfudUUUSqXMP-2oU-Ngx-2" value="" style="ellipse;whiteSpace=wrap;html=1;aspect=fixed;fillColor=#000000;container=0;" vertex="1" parent="dfudUUUSqXMP-2oU-Ngx-4">
          <mxGeometry x="7" width="5.07" height="5.07" as="geometry" />
        </mxCell>
        <mxCell id="dfudUUUSqXMP-2oU-Ngx-6" value="-" style="text;html=1;strokeColor=none;fillColor=none;align=center;verticalAlign=middle;whiteSpace=wrap;rounded=0;fontFamily=Roboto;fontStyle=2" vertex="1" parent="1">
          <mxGeometry x="38" y="394" width="10" height="30" as="geometry" />
        </mxCell>
        <mxCell id="dfudUUUSqXMP-2oU-Ngx-7" value="-" style="text;html=1;strokeColor=none;fillColor=none;align=center;verticalAlign=middle;whiteSpace=wrap;rounded=0;fontFamily=Roboto;fontStyle=2" vertex="1" parent="1">
          <mxGeometry x="38" y="359" width="10" height="30" as="geometry" />
        </mxCell>
        <mxCell id="dfudUUUSqXMP-2oU-Ngx-8" value="" style="endArrow=none;html=1;rounded=0;strokeWidth=4;" edge="1" parent="1">
          <mxGeometry width="50" height="50" relative="1" as="geometry">
            <mxPoint x="150" y="345" as="sourcePoint" />
            <mxPoint x="150" y="295" as="targetPoint" />
          </mxGeometry>
        </mxCell>
        <mxCell id="dfudUUUSqXMP-2oU-Ngx-12" style="edgeStyle=orthogonalEdgeStyle;rounded=0;orthogonalLoop=1;jettySize=auto;html=1;exitX=1;exitY=0.5;exitDx=0;exitDy=0;entryX=0;entryY=0.5;entryDx=0;entryDy=0;" edge="1" parent="1" source="dfudUUUSqXMP-2oU-Ngx-10" target="cye6MK2p7TntERCzml5D-4">
          <mxGeometry relative="1" as="geometry" />
        </mxCell>
        <mxCell id="dfudUUUSqXMP-2oU-Ngx-13" style="edgeStyle=orthogonalEdgeStyle;rounded=0;orthogonalLoop=1;jettySize=auto;html=1;exitX=0;exitY=0.5;exitDx=0;exitDy=0;startArrow=classic;startFill=1;endArrow=none;endFill=0;" edge="1" parent="1" source="dfudUUUSqXMP-2oU-Ngx-10">
          <mxGeometry relative="1" as="geometry">
            <mxPoint x="150" y="320.33333333333337" as="targetPoint" />
          </mxGeometry>
        </mxCell>
        <mxCell id="dfudUUUSqXMP-2oU-Ngx-10" value="" style="ellipse;whiteSpace=wrap;html=1;aspect=fixed;strokeWidth=2;container=0;fillColor=none;" vertex="1" parent="1">
          <mxGeometry x="210" y="310" width="20" height="20" as="geometry" />
        </mxCell>
        <mxCell id="dfudUUUSqXMP-2oU-Ngx-11" value="i" style="text;html=1;strokeColor=none;fillColor=none;align=center;verticalAlign=middle;whiteSpace=wrap;rounded=0;fontFamily=Roboto;" vertex="1" parent="1">
          <mxGeometry x="190" y="330" width="60" height="30" as="geometry" />
        </mxCell>
        <mxCell id="dfudUUUSqXMP-2oU-Ngx-21" value="" style="verticalLabelPosition=bottom;verticalAlign=top;html=1;shape=mxgraph.basic.arc;startAngle=0.33194645728749766;endAngle=0.1;strokeWidth=2;strokeColor=default;rotation=7;" vertex="1" parent="1">
          <mxGeometry x="194.01" y="272.78" width="13.99" height="13.99" as="geometry" />
        </mxCell>
        <mxCell id="dfudUUUSqXMP-2oU-Ngx-22" value="" style="verticalLabelPosition=bottom;verticalAlign=top;html=1;shape=mxgraph.basic.acute_triangle;dx=0.5;fillColor=#000000;strokeColor=none;rotation=133;aspect=fixed;" vertex="1" parent="1">
          <mxGeometry x="202.75690387263552" y="273.0069038726356" width="10" height="7" as="geometry" />
        </mxCell>
        <mxCell id="dfudUUUSqXMP-2oU-Ngx-28" value="" style="shape=partialRectangle;whiteSpace=wrap;html=1;bottom=1;right=1;left=1;top=0;fillColor=none;routingCenterX=-0.5;rotation=90;" vertex="1" parent="1">
          <mxGeometry x="8.67" y="387.35" width="58.67" height="10" as="geometry" />
        </mxCell>
        <mxCell id="dfudUUUSqXMP-2oU-Ngx-29" value="urls" style="text;html=1;strokeColor=none;fillColor=none;align=center;verticalAlign=middle;whiteSpace=wrap;rounded=0;fontFamily=Roboto;" vertex="1" parent="1">
          <mxGeometry x="60" y="330" width="60" height="30" as="geometry" />
        </mxCell>
      </root>
    </mxGraphModel>
  </diagram>
</mxfile>
